{"asset":{"generator":"Khronos glTF Spline I/O v0.0.1","version":"2.0"},"scenes":[{"nodes":[0]}],"nodes":[{"name":"","children":[1,2]},{"name":"Group","matrix":[1,0,0,0,0,1,0,0,0,0,1,0,-14.404211609459367,12.342521594813547,-1.2994189170826758,1],"children":[3]},{"name":"Personal Camera","camera":0,"translation":[0,6.123233995736766e-14,1000],"rotation":[-3.061616997868383e-17,0,0,1]},{"name":"Cube 2","matrix":[0.7071067811865476,0.5724860154746573,0.4150418799180991,0,-0.7071067811865475,0.5724860154746574,0.415041879918099,0,3.137549788506628e-17,-0.5869578555330014,0.8096174873531942,0,1.4042116094593338,-2.4223979907202424,3.925565343693852,1.0000000000000004],"mesh":0}],"cameras":[{"type":"orthographic","orthographic":{"xmag":1792,"ymag":1010,"zfar":100000,"znear":-100000}}],"meshes":[{"primitives":[{"attributes":{"POSITION":1,"NORMAL":2},"indices":0}]}],"buffers":[{"uri":"data:application/octet-stream;base64,","byteLength":2396160}],"bufferViews":[{"buffer":0,"byteOffset":0,"byteLength":479232,"target":34963},{"buffer":0,"byteOffset":479232,"byteLength":958464,"target":34962},{"buffer":0,"byteOffset":1437696,"byteLength":958464,"target":34962}],"accessors":[{"bufferView":0,"byteOffset":0,"componentType":5125,"count":119808,"type":"SCALAR","min":[0],"max":[79871]},{"bufferView":1,"byteOffset":0,"componentType":5126,"count":79872,"type":"VEC3","min":[-405.9996643066406,-402.8106689453125,-398.5588073730469],"max":[403.728759765625,405.472900390625,388.90509033203125]},{"bufferView":2,"byteOffset":0,"componentType":5126,"count":79872,"type":"VEC3","min":[-1,-1,-1],"max":[1,1,1]}],"extensions":{"KHR_lights_punctual":{"lights":[]}},"extensionsUsed":["KHR_lights_punctual"]}